<?xml version="1.0" encoding="utf-8"?>
<!-- Generator: Adobe Illustrator 16.0.0, SVG Export Plug-In . SVG Version: 6.00 Build 0)  -->
<!DOCTYPE svg PUBLIC "-//W3C//DTD SVG 1.1//EN" "http://www.w3.org/Graphics/SVG/1.1/DTD/svg11.dtd">
<svg version="1.1" id="Layer_1" xmlns="http://www.w3.org/2000/svg" xmlns:xlink="http://www.w3.org/1999/xlink" x="0px" y="0px"
	 width="512px" height="512px" viewBox="0 0 512 512" enable-background="new 0 0 512 512" xml:space="preserve">
<g>
	<path fill-rule="evenodd" clip-rule="evenodd" fill="#0F5B59" d="M384.516,381.15c-5.419,0.139-10.708-0.92-15.941-2.189
		c-24.662-5.989-45.153-19.036-62.48-37.295c-9.359-9.862-17.423-20.736-24.186-32.554c-1.948-3.406-3.952-6.783-5.773-10.248
		c-0.672-1.262-1.706-1.518-2.858-1.792c-10.436-2.502-20.876-5.004-31.313-7.504c-2.597-0.624-2.632-0.658-1.077-2.846
		c16.76-23.535,32.993-47.431,49.351-71.249c3.472-5.061,8.242-7.868,14.307-8.778c8.566-1.292,17.103-2.792,25.661-4.177
		c0.757-0.124,1.735-0.671,2.256,0.101c0.459,0.689-0.407,1.338-0.771,1.94c-8.515,14.098-15.342,28.92-19.19,44.999
		c-1.813,7.576-3.043,15.245-3.146,23.057c-0.014,0.814-0.19,1.626-0.168,2.438c0.047,1.472-0.616,1.507-1.802,1.147
		c-6.1-1.835-12.207-3.647-18.336-5.38c-1.558-0.437-1.944-0.983-0.978-2.396c2.834-4.141,4.739-8.842,7.782-12.868
		c0.602-0.792,1.017-1.722,1.328-2.724c-2.276,1.564-3.956,3.694-5.804,5.647c-3.768,3.981-7.498,8-11.281,11.969
		c-1.013,1.061-1.516,1.753,0.386,2.437c7.839,2.822,15.644,5.743,23.461,8.617c7.372,2.712,14.734,5.438,22.119,8.088
		c1.541,0.55,2.175,1.329,2.208,3.035c0.096,5.22-0.965,10.144-3.138,14.868c-0.546,1.186-1.147,1.682-2.563,1.264
		c-2.268-0.659-4.632-0.997-6.917-1.624c-1.719-0.473-1.671,0.155-1.266,1.486c2.576,8.563,6.701,16.407,11.494,23.872
		c14.211,22.126,33.945,37.71,57.849,48.254C384.001,380.86,384.253,381.014,384.516,381.15z"/>
	<path fill-rule="evenodd" clip-rule="evenodd" fill="#0F5B59" d="M380.62,275.171c-10.445,0.136-20.172-2.199-28.5-8.79
		c-9.394-7.425-14.28-17.419-15.825-29.113c-1.485-11.254,0.648-21.973,5.22-32.275c0.471-1.058,0.87-1.912,2.397-1.686
		c10.477,1.568,20.948,3.194,31.448,4.511c8.259,1.04,13.627,5.586,17.121,12.819c12.782,26.418,25.569,52.837,38.351,79.257
		c0.836,1.73,1.611,3.504,2.546,5.187c0.797,1.402,0.62,2.339-0.705,3.359c-3.714,2.859-7.575,5.434-11.8,7.49
		c-1.434,0.692-2.204,0.467-3.151-0.738c-7.602-9.669-15.264-19.289-22.902-28.927c-2.304-2.9-4.741-5.71-6.888-8.722
		c-1.391-1.947-2.836-3.089-5.319-2.396C381.988,275.316,381.283,275.171,380.62,275.171z M351.895,229.121
		c-1.558-0.163-2.526-0.349-2.597,1.178c-0.057,1.292,0.438,1.887,1.727,2.03c5.299,0.575,10.588,1.195,15.883,1.799
		c0.843,0.101,1.701,0.241,1.692-1.047c-0.01-1.045,0.159-2.063-1.416-2.227C361.891,230.309,356.605,229.663,351.895,229.121z"/>
	<path fill-rule="evenodd" clip-rule="evenodd" fill="#1A1E44" d="M415.288,381.601c-4.337,0.139-4.367,0.149-5.562-3.417
		c-4.315-12.937-8.602-25.879-12.938-38.805c-0.455-1.36-0.428-2.092,1.199-2.559c22.617-6.51,42.716-17.824,61.151-32.264
		c2.918-2.282,5.787-4.646,8.471-7.186c1.571-1.485,2.126-0.987,2.987,0.608c5.736,10.798,11.544,21.555,17.336,32.322
		c2.706,5.025,5.376,10.068,8.15,15.049c0.719,1.278,0.572,2.074-0.492,3.04c-6.107,5.566-12.835,10.281-19.926,14.471
		c-18.098,10.688-37.607,16.984-58.579,18.636C416.271,381.563,415.457,381.593,415.288,381.601z"/>
	<path fill-rule="evenodd" clip-rule="evenodd" fill="#0F5B59" d="M368.236,163.083c0,2.147-0.044,4.297,0.017,6.441
		c0.031,1.083-0.255,1.784-1.303,2.282c-10.068,4.773-18.297,11.938-25.829,20c-2.065,2.221-2.135,2.221-4.325,0.052
		c-8.024-7.958-11.942-17.877-13.44-28.847c-1.367-10.065-0.731-20.078,1.307-30.011c0.603-2.915,0.599-2.949,3.442-2.307
		c5.479,1.245,11.039,0.859,16.588,0.818c2.809-0.015,5.635-0.311,8.414,0.275c8.346,1.759,12,7.761,13.74,15.401
		C368.036,152.414,368.296,157.742,368.236,163.083z"/>
	<path fill-rule="evenodd" clip-rule="evenodd" fill="#1A1E44" d="M331.446,214.751c-1.338,4.991-2.494,9.575-3.082,14.278
		c-1.744,13.956,0.073,27.097,9.275,38.375c6.407,7.848,14.879,12.762,24.51,15.258c4.778,1.24,7.809,3.427,9.575,7.913
		c0.939,2.4,2.389,4.6,3.658,6.859c0.532,0.942,0.454,1.549-0.441,2.25c-3.412,2.654-7.001,4.987-10.943,6.752
		c-0.857,0.378-1.641,0.564-2.546,0.106c-16.12-8.282-29.534-19.218-35.729-37.032c-3.926-11.312-3.64-22.865-1.294-34.454
		c1.268-6.258,3.271-12.302,5.613-18.245C330.277,216.213,330.377,215.516,331.446,214.751z"/>
	<path fill-rule="evenodd" clip-rule="evenodd" fill="#5E85B9" d="M331.559,213.958c-0.038-0.018-0.073-0.04-0.112-0.052
		c0.057-0.042,0.112-0.076,0.169-0.11C331.594,213.855,331.576,213.907,331.559,213.958z"/>
	<g>
		<path fill="#1A1E44" d="M166.221,181.828c5.448,0,10.055-1.883,13.825-5.65c3.762-3.762,5.649-8.374,5.649-13.824
			c0-5.608-1.845-10.254-5.533-13.944c-3.687-3.684-8.332-5.529-13.941-5.529H35.19c-3.208,0-6.052,0.682-8.536,2.042
			c-2.489,1.363-4.61,3.165-6.368,5.413c-3.211,3.687-4.813,8.17-4.813,13.462V347.96c0,2.885,0.519,5.612,1.567,8.175
			c1.038,2.564,2.44,4.81,4.202,6.73c1.762,1.923,3.888,3.45,6.376,4.568c2.48,1.124,5.164,1.681,8.052,1.681H165.26
			c2.723,0,5.289-0.478,7.696-1.438c2.401-0.962,4.519-2.363,6.367-4.209c1.84-1.839,3.285-3.967,4.328-6.371
			c1.039-2.404,1.563-5.051,1.563-7.935c0-5.447-1.964-10.097-5.891-13.944c-3.931-3.846-8.618-5.769-14.063-5.769H57.067V274.39
			h70.445c5.446,0,10.096-1.84,13.943-5.528c3.847-3.686,5.773-8.254,5.773-13.705c0-5.609-1.927-10.136-5.773-13.586
			c-3.848-3.443-8.497-5.168-13.943-5.168H57.067v-54.333L166.221,181.828z"/>
		<path fill="#1A1E44" d="M287.345,328.509c-4.632-0.977-9.106-2.376-13.419-4.231c-9.132-3.924-16.989-9.213-23.56-15.866
			c-4.179-4.222-7.779-8.891-10.822-13.99c-0.775-1.301-1.502-2.639-2.209-3.993c-0.159-0.313-0.319-0.625-0.475-0.941
			c-0.701-1.398-1.377-2.818-1.996-4.274c-3.77-8.815-5.657-18.113-5.657-27.894c0-10.414,1.965-20.072,5.892-28.968
			c3.925-8.897,9.259-16.591,15.99-23.083c6.731-6.493,14.626-11.62,23.682-15.388c0.234-0.097,0.473-0.177,0.711-0.272v-0.003
			c8.842-3.571,18.18-5.374,28.019-5.374c6.488,0,12.459,0.63,17.942,1.846c-4.389-9.587-6.869-20.176-6.869-31.262
			c0-3.969,0.319-7.872,0.921-11.691c-3.604-0.312-7.202-0.486-10.795-0.486c-15.549,0-30.409,2.886-44.595,8.656
			c-14.181,5.772-26.65,13.665-37.386,23.68c-10.745,10.019-19.315,21.804-25.727,35.344c-6.409,13.547-9.617,28.093-9.617,43.638
			c0,16.989,3.043,32.739,9.137,47.243c0.87,2.074,1.802,4.094,2.763,6.085c0.302,0.62,0.618,1.223,0.926,1.833
			c0.697,1.382,1.412,2.745,2.151,4.087c0.368,0.66,0.736,1.312,1.113,1.961c0.77,1.331,1.571,2.639,2.388,3.928
			c0.352,0.549,0.689,1.106,1.045,1.646c4.276,6.494,9.142,12.449,14.622,17.845c10.574,10.424,22.993,18.597,37.262,24.525
			c14.267,5.931,29.576,8.896,45.918,8.896c7.523,0,15.042-0.701,22.565-2.078C311.49,358.784,297.903,344.698,287.345,328.509z"/>
	</g>
</g>
</svg>
