<svg xmlns="http://www.w3.org/2000/svg" xmlns:xlink="http://www.w3.org/1999/xlink" version="1.1" id="Layer_1" x="0px" y="0px" width="350px" height="350px" viewBox="0 0 350 350" enable-background="new 0 0 350 350" xml:space="preserve">
<g>
	<path fill-rule="evenodd" clip-rule="evenodd" d="M168.805,263.417c0.021-42.974,35.193-78.128,78.189-78.152   c43.068-0.025,78.289,35.257,78.15,78.295c-0.137,43.117-35.393,78.312-78.211,78.072   C203.752,341.391,168.781,306.381,168.805,263.417z M310.973,263.589c0.211-35.158-28.254-63.837-63.619-64.098   c-35.281-0.259-64.066,28.19-64.316,63.564c-0.25,35.402,28.352,64.236,63.865,64.381   C282.129,327.58,310.76,299.049,310.973,263.589z" fill="#ffffff"/>
	<path fill-rule="evenodd" clip-rule="evenodd" d="M239.289,256.327c0-7.271-0.033-14.3,0.01-21.329   c0.031-4.902,4.475-8.234,9.102-6.911c3.076,0.88,5.105,3.649,5.123,7.157c0.033,6.371,0.01,12.741,0.01,19.111   c0,0.597,0,1.192,0,1.972c0.746,0,1.34,0,1.93,0c6.26,0,12.521-0.007,18.781,0.001c4.436,0.008,7.598,2.93,7.629,7.026   c0.031,4.202-3.115,7.198-7.633,7.209c-6.811,0.02-13.621,0.006-20.707,0.006c0,0.656,0,1.236,0,1.815   c0,6.426,0.031,12.852-0.016,19.277c-0.021,3.215-1.844,5.796-4.645,6.834c-2.715,1.008-5.803,0.255-7.746-1.913   c-1.275-1.423-1.85-3.104-1.846-5.019c0.018-6.314,0.006-12.63,0.006-18.944c0-0.603,0-1.206,0-2.051c-0.68,0-1.262,0-1.844,0   c-6.592,0-13.186,0.026-19.777-0.013c-3.088-0.018-5.627-1.832-6.678-4.607c-1.033-2.728-0.314-5.785,1.85-7.757   c1.412-1.286,3.088-1.876,5.002-1.872c6.482,0.017,12.965,0.007,19.445,0.007C237.885,256.326,238.484,256.327,239.289,256.327z" fill="#ffffff"/>
	<path fill="none" d="M205,47.997c-7,0-13.738,0.015-20.467-0.005c-5.291-0.017-8.235-2.215-9.646-7.208   c-3.004-10.628-11.259-17.409-21.157-17.405c-10.002,0.004-18.444,6.884-21.483,17.522c-1.402,4.903-4.241,7.06-9.347,7.096   c-1.391,0.01-2.789,0.003-4.182,0.003c-5.1,0-10.719,0-15.719,0c0,10,0,20,0,31c34,0,68,0,102,0C205,68,205,58.478,205,47.997z"/>
	<path d="M274.945,279.582c-2.338,0.007-4.945,0.008-6.945,0.009c0,8.353,0,16.706,0,25.059c0,4.344-0.936,7.86-2.629,10.592   c6.744-2.395,12.849-6.081,18.104-10.768c-0.004-9.037,0.019-18.073,0.017-27.109C280.967,278.794,278.061,279.575,274.945,279.582   z" fill="#ffffff"/>
	<path d="M268,247h-0.004c2.285,0,4.57,0.172,6.859,0.176c3.182,0.006,6.094,0.895,8.572,2.288   c-0.002-9.082,0.08-18.122,0.08-27.205c-4.58-4.04-10.508-7.29-15.508-9.647C268,224.188,268,235,268,247z" fill="#ffffff"/>
	<path d="M182.949,322.332c-41.008,0-82.018-0.017-123.027-0.048c-2.646-0.002-5.385-0.238-7.926-0.93   c-7.848-2.135-11.537-7.153-11.537-15.218c-0.006-50.348-0.002-100.697-0.002-151.043c0-22.925-0.006-45.85,0.002-68.775   c0.004-11.179,7.217-18.604,18.373-18.728c9.104-0.101,17.965,0,27.07,0.026C86.205,67.618,87,67.776,87,67.982   c0,1.051,0,2.189,0,3.328c0,5.034,0.16,10.071,0.273,15.104c0.117,5.207,3.474,8.526,8.573,8.531   c38.672,0.041,77.405,0.042,116.075-0.001c5.338-0.006,8.763-3.541,8.831-8.966c0.076-5.982,0.034-11.967,0.034-18.112   c11.127,0,21.742-0.448,32.293,0.146c8.141,0.458,14.499,8.157,14.823,16.5c0.041,1.069,0.097,2.142,0.097,3.214   c0,30.351,0,60.704,0,91.056c5,1.318,10.49,3.154,15.504,5.469c0-32.961-0.04-65.923-0.05-98.885   c-0.006-18.471-14.317-33.01-32.806-33.383C241.975,51.808,233.275,52,224.6,52c-1.15,0-2.299,0-3.797,0   c0-4,0.01-7.611-0.002-11.221c-0.018-5.41-2.186-8.021-7.615-8.228c-7.059-0.269-14.135-0.24-21.199-0.131   c-2.322,0.036-3.535-0.543-4.543-2.843c-4.986-11.378-13.949-18.196-26.023-20.508C160.486,8.89,159.57,9,158.646,8   c-3.645,0-7.287,0-10.93,0c-2.549,1-5.164,1.679-7.631,2.621c-9.223,3.521-16.055,9.912-20.084,18.968   c-0.875,1.966-1.891,2.773-4.055,2.722c-6.424-0.153-12.854-0.073-19.279,0.018c-7.104,0.1-9.176,2.283-9.178,9.285   c-0.002,3.294-0.002,6.601-0.002,10.252c-1.674,0-3.037-0.015-4.396,0.009c-10.164,0.177-20.414-0.4-30.473,0.727   c-15.637,1.752-27.701,16.005-27.717,31.762c-0.066,74.555-0.063,149.114,0.002,223.67c0.014,14.408,10.496,26.046,25.896,29.253   c0.814,0.168,1.604-0.287,2.406,0.713c49.652,0,99.303,0,148.953,0C195.031,333,188.564,328.408,182.949,322.332z M103,48   c5,0,10.619,0,15.719,0c1.393,0,2.785,0.007,4.176-0.003c5.105-0.036,7.939-2.192,9.342-7.095   c3.039-10.639,11.471-17.519,21.473-17.522c9.898-0.004,18.133,6.777,21.137,17.405c1.41,4.993,4.396,7.192,9.688,7.208   c6.729,0.02,13.467,0.004,20.467,0.004C205,58.478,205,68,205,79c-34,0-68,0-102,0C103,68,103,58,103,48z" fill="#ffffff"/>
	<path d="M145.783,153.694c1.059,0.115,2.137,0.101,3.205,0.101c28.256,0.005,56.512,0.008,84.766-0.006   c1.389-0.001,2.799-0.009,4.156-0.252c4.494-0.809,7.271-5.299,6.068-9.658c-0.998-3.621-4.125-5.774-8.613-5.782   c-14.662-0.024-29.326-0.01-43.988-0.01c-11.881,0-23.76-0.002-35.641,0.001c-3.211,0.001-6.428-0.118-9.631,0.054   c-4.398,0.235-7.463,3.458-7.533,7.639C138.5,150.049,141.357,153.21,145.783,153.694z" fill="#ffffff"/>
	<path d="M147.48,263.47c-5.885,0.018-9.43,3.65-8.852,8.889c0.467,4.225,3.746,6.848,8.979,6.855   c4.553,0.006,9.105,0.004,13.656,0.007c-0.951-5.116-1.453-10.384-1.459-15.763C155.697,263.461,151.59,263.459,147.48,263.47z" fill="#ffffff"/>
	<path d="M203.168,269.156c-0.707-1.867-1.045-3.796-1.051-5.703c-3.357,0.001-6.717,0.003-10.074,0.003   c-0.004,5.423,0.77,10.726,2.279,15.779c6.883-0.001,13.766-0.005,20.648-0.009C209.613,278.124,205.158,274.413,203.168,269.156z" fill="#ffffff"/>
	<path d="M186.4,200.854c-11.811,0.001-23.619-0.001-35.43,0.001c-1.711,0-3.43-0.051-5.135,0.074   c-4.609,0.338-7.592,3.873-7.229,8.467c0.332,4.215,3.609,7.041,8.408,7.055c8.852,0.022,17.703,0.022,26.553,0.02   C177.232,210.775,181.547,205.538,186.4,200.854z" fill="#ffffff"/>
	<path d="M236.598,216.407c4.477-0.086,7.637-3.531,7.6-7.858c-9.363,0.457-18.129,3.295-25.705,7.922   C224.529,216.486,230.564,216.523,236.598,216.407z" fill="#ffffff"/>
	<path d="M123.629,183.673c-3.395-3.035-7.727-2.828-11.477,0.715c-8.004,7.563-15.947,15.191-23.582,22.473   c-3.814-3.508-7.383-6.725-10.879-10.02c-3.6-3.393-8.057-3.738-11.211-0.768c-3.154,2.973-3.225,8.037,0.086,11.533   c5.221,5.516,10.525,10.951,15.912,16.303c3.076,3.057,7.244,3.33,10.4,0.395c10.572-9.832,21.053-19.77,31.41-29.828   C127.527,191.333,127.014,186.698,123.629,183.673z" fill="#ffffff"/>
	<path d="M82.512,161.22c3.105,3.094,7.168,3.357,10.363,0.385c10.494-9.762,20.916-19.603,31.199-29.586   c3.877-3.765,2.736-9.53-2.008-12.166c-3.32-1.844-6.607-1.275-9.891,1.835c-7.996,7.573-15.959,15.179-23.68,22.525   c-3.705-3.44-7.186-6.592-10.574-9.838c-3.617-3.467-8.373-3.92-11.455-0.977c-3.225,3.077-3.17,8.08,0.338,11.765   C71.967,150.585,77.207,155.937,82.512,161.22z" fill="#ffffff"/>
	<path d="M123.066,245.905c-3.391-2.58-7.258-2.27-10.719,1.004c-8.072,7.635-16.102,15.314-24.213,23.039   c-0.479-0.26-0.59-0.289-0.66-0.361c-3.139-3.213-6.252-6.449-9.412-9.639c-3.68-3.717-8.551-4.156-11.664-1.1   c-3.176,3.113-3.063,8.09,0.459,11.779c5.094,5.338,10.268,10.604,15.479,15.828c3.238,3.244,7.305,3.563,10.607,0.486   c10.488-9.764,20.902-19.611,31.188-29.592C127.676,253.911,127.002,248.901,123.066,245.905z" fill="#ffffff"/>
</g>
</svg>