<svg xmlns="http://www.w3.org/2000/svg" xmlns:xlink="http://www.w3.org/1999/xlink" version="1.1" id="Layer_1" x="0px" y="0px" width="350px" height="350px" viewBox="0 0 350 350" enable-background="new 0 0 350 350" xml:space="preserve">
<g>
	<path fill-rule="evenodd" clip-rule="evenodd" d="M310.514,20.801c0.728,0.271,1.441,0.589,2.186,0.808   c9.832,2.889,16.443,11.375,16.456,21.641c0.058,44.972,0.07,89.944,0,134.916c-0.021,12.888-9.938,22.497-23.233,22.55   c-24.995,0.1-49.99,0.029-74.986,0.03c-6.525,0-13.051,0.048-19.575-0.011c-13.892-0.124-23.53-9.653-23.548-23.513   c-0.057-44.269-0.045-88.538-0.006-132.807c0.01-12.002,6.519-20.116,18.326-23.191c0.277-0.072,0.521-0.279,0.781-0.423   C241.447,20.801,275.98,20.801,310.514,20.801z M207.064,110.521c0,21.874-0.003,43.747,0.004,65.621   c0.001,4.422,0.884,5.322,5.244,5.324c30.803,0.008,61.605,0.008,92.41,0c4.367,0,5.188-0.857,5.188-5.329   c0.002-43.546,0.002-87.092,0-130.639c0-4.73-0.682-5.422-5.35-5.422c-30.703-0.002-61.406-0.002-92.109,0   c-4.611,0-5.383,0.772-5.384,5.427C207.063,67.177,207.064,88.849,207.064,110.521z" fill="#ffffff"/>
	<path fill-rule="evenodd" clip-rule="evenodd" d="M20.797,168.37c0.684-1.981,1.169-4.061,2.084-5.929   c4.128-8.426,11.006-13.066,20.338-13.115c32.119-0.167,64.242-0.201,96.363-0.009c13.371,0.08,22.574,10.052,22.596,23.804   c0.044,28.105,0.014,56.212,0.014,84.318c0,15.76,0.012,31.519-0.003,47.278c-0.015,15.088-9.366,24.468-24.381,24.471   c-30.716,0.006-61.433,0.003-92.148,0.001c-13.229,0-20.55-5.463-24.476-18.237c-0.052-0.168-0.255-0.29-0.387-0.434   C20.797,263.136,20.797,215.753,20.797,168.37z M40.071,239.021c0,21.973-0.003,43.947,0.003,65.921   c0.001,4.093,0.86,4.971,4.893,4.971c31.004,0.007,62.009,0.006,93.013,0c3.995,0,4.931-0.931,4.933-4.979   c0.008-43.746,0.008-87.493,0.001-131.24c-0.001-4.229-0.925-5.166-5.097-5.168c-30.904-0.008-61.809-0.009-92.712,0   c-4.179,0.002-5.03,0.896-5.032,5.176C40.068,195.475,40.071,217.247,40.071,239.021z" fill="#ffffff"/>
	<path fill-rule="evenodd" clip-rule="evenodd" d="M143.068,20.801c3.74,1.818,7.873,3.115,11.135,5.57   c5.617,4.229,7.949,10.455,7.968,17.431c0.051,18.967,0.136,37.936-0.026,56.901c-0.112,13.213-9.664,22.833-22.889,22.893   c-31.812,0.146-63.625,0.111-95.438,0.015c-11.32-0.035-19.674-6.808-22.475-17.702c-0.123-0.477-0.362-0.924-0.547-1.385   c0-21.683,0-43.367,0-65.051c0.369-1.012,0.764-2.017,1.104-3.038c2.042-6.114,5.922-10.634,11.761-13.382   c1.873-0.881,3.867-1.509,5.807-2.252C74.002,20.801,108.535,20.801,143.068,20.801z M91.547,40.076   c-15.447,0-30.896-0.003-46.344,0.002c-4.32,0.001-5.128,0.791-5.13,5.033c-0.006,18.056-0.006,36.113,0,54.168   c0.001,4.196,0.886,5.088,5.119,5.089c30.896,0.008,61.793,0.009,92.688-0.001c4.032-0.001,5.025-0.972,5.028-4.935   c0.017-18.157,0.017-36.313,0.001-54.469c-0.003-3.976-0.961-4.883-5.019-4.885C122.443,40.072,106.995,40.076,91.547,40.076z" fill="#ffffff"/>
	<path fill-rule="evenodd" clip-rule="evenodd" d="M258.618,329.19c-15.651,0-31.304,0.015-46.954-0.005   c-14.238-0.017-23.819-9.519-23.86-23.755c-0.053-18.46-0.057-36.921,0.002-55.381c0.046-14.058,9.606-23.663,23.646-23.688   c31.403-0.055,62.807-0.063,94.209,0.004c14.039,0.029,23.505,9.687,23.521,23.776c0.021,18.461,0.024,36.921-0.001,55.382   c-0.02,14.052-9.582,23.635-23.607,23.66C289.92,329.212,274.27,329.19,258.618,329.19z M258.456,309.916   c15.448,0,30.896,0.004,46.345-0.002c4.306-0.002,5.106-0.794,5.108-5.062c0.006-18.057,0.006-36.113-0.001-54.169   c-0.001-4.18-0.888-5.061-5.148-5.062c-30.795-0.008-61.592-0.007-92.388,0c-4.412,0-5.302,0.881-5.304,5.257   c-0.008,17.956-0.009,35.912,0,53.868c0.003,4.357,0.855,5.167,5.345,5.168C227.761,309.918,243.107,309.916,258.456,309.916z" fill="#ffffff"/>
</g>
</svg>