<svg xmlns="http://www.w3.org/2000/svg" xmlns:xlink="http://www.w3.org/1999/xlink" version="1.1" id="Layer_1" x="0px" y="0px" width="350px" height="350px" viewBox="0 0 350 350" enable-background="new 0 0 350 350" xml:space="preserve">
<g>
	<path d="M313.024,56.951c-0.306-12.391-9.912-21.777-22.345-21.833l-2.432-0.011c-4.261-0.021-8.521-0.041-12.782-0.041   c-5.629,0-10.305-0.054-14.714,0.022L260.595,35c-0.017,0-0.031,0-0.047,0c-0.004,0-0.006-0.329-0.007-0.45   c-0.096-12.663-9.45-21.55-21.76-22.55h-0.231c-12.559,0-22.398,10.078-22.401,22.668c0,0.099-0.002,0.296-0.004,0.377   c-0.157,0.005-0.315,0.066-0.59,0.062c-16.051-0.052-31.705-0.032-44.901-0.032l-34.412,0.02c-0.572,0-1.188,0.007-1.668-0.008   c-0.051-0.512-0.095-1.183-0.136-1.812c-0.057-0.86-0.152-1.627-0.295-2.352c-2.133-10.873-11.233-18.467-22.129-18.467   c-0.619,0-1.248,0.025-1.871,0.074c-11.533,0.906-20.437,10.495-20.708,22.417C89.434,34.996,89.432,35,89.431,35H89.34   c-3.866,0-7.994,0.004-13.383,0.004c-2.272,0-4.546,0.046-6.819,0.051c-2.27,0.004-4.539,0.03-6.809,0.03l-3.613,0.006   c-7.108,0-12.936,3.03-17.319,8.995c-3.107,4.227-4.553,9.16-4.549,15.516c0.017,27.981,0.016,55.962,0.015,83.943   c-0.002,36.724-0.003,73.446,0.035,110.169c0.014,12.718,0.162,25.642,0.306,38.139c0.083,7.189,0.165,14.595,0.224,21.784   C37.55,328.756,46.602,338,61.64,338h37.827H216.53c24.244,0,48.489-0.217,72.811-0.221c2.451,0,5.23-0.107,8.025-0.969   c9.688-2.982,15.716-11.849,15.731-23.053c0.027-19.197,0.022-38.421,0.018-57.618l-0.003-46.373c0-41.951,0-83.909-0.003-125.86   c0-2.48,0.011-4.965,0.021-7.446C313.158,70.073,313.187,63.464,313.024,56.951z M240.445,35.098   c-1.334,0.013-2.667,0.014-4.001-0.013c-0.692-0.014-1.385-0.028-2.077-0.028c-0.767,0-1.441,0.017-2.072,0.053   c0.309-3.941,2.994-6.594,6.593-6.427c3.167,0.158,5.363,2.753,5.546,6.422C243.106,35.071,241.774,35.085,240.445,35.098z    M53.071,215.208c-0.005-37.726,0.032-76.735-0.036-115.102c0-0.452,0.064-0.766,0.085-0.981c0.19-0.019,0.88-0.033,0.88-0.033   v-2.999l0,0l0.02,2.999c25.305,0.081,50.33,0.092,71.485,0.092l49.605-0.007l47.628,0.005c21.84,0,47.646-0.009,73.509-0.077   c0.316,0,0.554,0.011,0.73,0.025c0.015,0.182,0.024,0.428,0.024,0.757c-0.105,43.313-0.105,87.299,0.001,130.734   c0.001,0.245-0.005,0.441-0.014,0.599c-0.105,0.005-0.229,0.008-0.373,0.008l-0.18-0.002c-5.453-0.073-11.439-0.107-18.839-0.107   c-3.757,0-7.515,0.008-11.272,0.017c-3.137,0.007-6.273,0.014-9.41,0.016c-12.454,0.01-20.829,8.381-20.841,20.83l-0.079,8.228   c-0.017,10.579,0.005,21.518,0.005,32.281c0,0.023,0,0.511,0,0.511s0.067,0,0.031,0c-39.865,0-80.398-0.276-119.598-0.279   c-16.869-0.001-33.737-0.112-50.606-0.117c-7.522-0.002-11.633-3.947-12.39-11.947C53.086,276.928,53,273.203,53,269.317v-0.665   C53,250.838,53.074,233.022,53.071,215.208z M252.547,249.9c0.01-1.171,1.375-2.287,2.809-2.297   c5.531-0.035,11.063-0.045,16.553-0.045c3.292,0,6.57,0.004,9.824,0.007c0.77,0.001,1.538,0.002,2.305,0.003l-31.54,31.509   c-0.001-0.759-0.002-1.519-0.003-2.281C252.482,268.014,252.47,258.932,252.547,249.9z M53.598,306.526   c4.927,2.139,9.83,2.488,14.16,2.488c1.979,0,3.964,0.069,5.883-0.011c1.93-0.08,3.753-0.004,5.581-0.004H79.4   c29.976,0,60.652,0,87.054,0h27.317c15.615,0,31.239-0.106,46.876-0.092c4.48,0,8.027-1.528,11.162-4.691   c9.755-9.837,19.718-19.826,29.352-29.46c5.254-5.254,10.508-10.521,15.755-15.781c0.003,3.622,0.007,7.238,0.012,10.861   c0.017,14.676,0.034,29.849-0.066,44.767c-0.03,4.461-2.428,6.72-7.126,6.72l-114.447,0.002l-114.447-0.004   c-4.707,0-7.062-2.315-7.198-7.079C53.57,311.74,53.58,309.198,53.598,306.526z M114.169,35.101   c-1.326,0.009-2.651,0.014-3.979-0.029c-0.682-0.022-1.362-0.043-2.041-0.043c-0.911,0-1.691,0.038-2.424,0.118   c0.003-0.027,0.005-0.056,0.008-0.084c0.375-3.702,2.995-6.389,6.23-6.389c0.14,0,0.28,0.005,0.422,0.015   c3.321,0.232,5.731,2.923,5.904,6.418C116.917,35.08,115.543,35.091,114.169,35.101z M61,48.277v3c3,0,5.263,0.006,7.788,0.012   c2.53,0.006,5.167,0.013,7.698,0.013c5.033,0,9.169-0.026,12.878-0.083c0.167,12.3,9.511,22.249,21.256,22.657   c0.182,0.006,0.372,0.009,0.546,0.009c5.037,0,8.324-2.669,8.781-7.137c0.505-4.907-2.459-8.268-7.936-8.988   c-4.1-0.539-6.068-2.559-6.323-6.524c3.163,0.041,6.523,0.059,10.813,0.059c2.169,0,4.34-0.005,6.508-0.009   c2.166-0.005,4.332-0.009,6.497-0.009l37.619,0.009c14.284,0,31.231-0.01,48.678-0.083c0.123,0,0.231,0.002,0.327,0.005   c0.005,0.127,0.009,0.28,0.01,0.461c0.054,11.946,9.64,21.912,21.369,22.215l0.355,0.005c5.005,0,8.457-2.904,8.794-7.396   c0.355-4.705-2.645-8.047-7.831-8.723c-4.234-0.552-6.326-2.632-6.536-6.53c9.409,0.03,18.819,0.031,28.228,0.033   c10.197,0.001,20.394,0.002,30.59,0.041c3.371,0.012,5.689,2.746,5.769,6.802c0.098,5.117,0.085,10.338,0.072,15.388   c-0.008,3.153-0.016,6.307,0.002,9.46c-0.837-0.021-1.845-0.012-2.816,0.002c-0.521,0.007-1.043,0.015-1.563,0.015l-164.062-0.004   c-22.288,0-48.6,0.008-74.799,0.071c-0.269,0-0.48-0.006-0.647-0.015c-0.003-0.124-0.002-0.272,0.003-0.448   c0.159-4.963,0.133-9.986,0.107-14.845c-0.015-2.815-0.029-5.63-0.01-8.444c0.044-6.068,1.819-8.016,7.965-8.017L61,48.277   L61,48.277z" fill="#ffffff"/>
	<path d="M189.677,158.855c1.891,0.012,3.78,0.016,5.671,0.016l8.753-0.009c1.438,0,2.875,0.004,4.312,0.008   c1.442,0.004,2.885,0.008,4.327,0.008c1.938,0,3.875-0.007,5.814-0.03c5.356-0.066,8.587-3.206,8.642-8.4   c0.099-9.396,0.101-19.335,0.004-29.542c-0.051-5.372-3.358-8.597-8.85-8.625c-9.614-0.048-19.229-0.044-28.848-0.002   c-5.667,0.024-8.946,3.236-8.997,8.813c-0.082,9.194-0.084,18.908-0.005,28.87C180.546,155.825,183.634,158.817,189.677,158.855z    M210.853,142.722c-4.665-0.044-9.296-0.052-14.02,0.002c0.027-1.565,0.018-3.15,0.008-4.808c-0.006-0.875-0.011-1.784-0.012-2.738   c0.098-1.205-0.054-2.459-0.199-3.675c-0.114-0.946-0.322-2.678-0.165-3.164c0.147-0.043,0.501-0.115,1.209-0.115   c0.792,0,1.71,0.286,2.683,0.376c1.059,0.098,2.154,0.399,3.211,0.399h0.163c1.063,0,2.129-0.205,3.194-0.199   c1.301,0.008,2.58-0.085,3.928-0.106C210.799,133.474,210.799,138.113,210.853,142.722z" fill="#ffffff"/>
	<path d="M189.127,218.579c1.933,0.024,3.865,0.032,5.797,0.032c1.473,0,2.945-0.005,4.418-0.009c2.94-0.01,5.881-0.009,8.819-0.001   c3.396,0.007,6.793,0.017,10.188-0.02c5.678-0.06,8.825-3.215,8.862-8.882c0.07-10.351,0.068-19.793-0.005-28.866   c-0.044-5.586-3.321-8.802-8.991-8.824c-9.616-0.038-19.234-0.042-28.847,0.002c-5.491,0.025-8.802,3.241-8.856,8.601   c-0.102,10.142-0.101,20.082,0.004,29.545C180.573,215.359,183.792,218.508,189.127,218.579z M210.822,192.901   c0.009,0.776,0.018,1.554,0.018,2.33c0,0.779-0.007,1.56-0.013,2.339c-0.014,1.598-0.027,3.242,0.016,4.894   c-2.151-0.044-4.371-0.064-6.754-0.064c-2.237,0-4.61,0.019-7.277,0.059c0.073-5.174,0.072-9.824-0.002-14.149   c4.654,0.053,9.246,0.063,14.023-0.002C210.788,189.86,210.806,191.401,210.822,192.901z" fill="#ffffff"/>
	<path d="M218.044,231.164c-9.393-0.049-18.787-0.041-28.184-0.005c-6.085,0.025-9.324,3.196-9.367,9.172   c-0.067,10.082-0.066,19.414,0.003,28.53c0.032,4.04,1.644,8.873,9.14,8.957c3.251,0.035,6.504,0.113,9.761,0.104   c1.396-0.002,2.79,0.078,4.187,0.078h0.294c1.419,0,2.839-0.08,4.258-0.076c1.424,0.004,2.849-0.035,4.273-0.035   c1.929,0,3.858-0.027,5.786-0.052c5.869-0.072,8.989-3.227,9.023-9.1c0.06-10.143,0.059-19.479-0.003-28.531   C227.174,234.41,223.917,231.195,218.044,231.164z M210.855,261.606c-2.419-0.028-4.837-0.045-7.256-0.045   c-2.373,0-4.584,0.016-6.769,0.05c0.04-1.573,0.025-3.137,0.012-4.659c-0.008-0.774-0.015-1.548-0.015-2.322   c0-0.805,0.007-1.61,0.014-2.416c0.012-1.526,0.024-3.093-0.008-4.668c2.417,0.028,4.834,0.045,7.252,0.045   c2.365,0,4.577-0.016,6.771-0.049C210.795,252.34,210.795,257.06,210.855,261.606z M196.051,247.475   c-0.017,0.007-0.051,0.013-0.051,0.019v-2.959l0,0L196.051,247.475z" fill="#ffffff"/>
	<path d="M77.566,158.848c4.862,0.022,9.726,0.034,14.588,0.034c4.863,0,9.726-0.011,14.59-0.034   c5.412-0.026,8.562-3.187,8.641-8.673c0.048-3.401,0.037-6.847,0.026-10.18c-0.005-1.479-0.009-2.958-0.009-4.436   c0-1.419,0.004-2.838,0.008-4.257c0.009-3.281,0.019-6.674-0.019-10.024c-0.069-5.87-3.205-8.982-9.066-9.003   c-9.503-0.035-19.006-0.039-28.512,0.001c-5.803,0.026-9.012,3.26-9.035,9.105c-0.039,9.656-0.038,19.25,0.002,28.514   C68.805,155.644,71.926,158.823,77.566,158.848z M85.099,128.569c4.688,0.061,9.306,0.067,14.132-0.002   c-0.091,4.791-0.092,9.542-0.001,14.148c-0.842-0.022-1.685-0.029-2.527-0.029c-0.795,0-1.59,0.006-2.385,0.013   c-1.525,0.012-3.05,0.012-4.577-0.003c-1.637-0.018-3.31-0.025-4.642,0.016C85.184,137.848,85.183,133.099,85.099,128.569z" fill="#ffffff"/>
	<path d="M133.563,158.848c3.441,0.04,6.883,0.031,10.324,0.022c2.913-0.008,5.826-0.007,8.739,0.001   c1.49,0.005,2.981,0.009,4.473,0.009c2.007,0,4.015-0.008,6.021-0.037c5.085-0.069,8.399-3.301,8.444-8.233   c0.086-9.441,0.089-19.208,0.007-29.863c-0.041-5.108-3.435-8.429-8.645-8.46c-9.841-0.059-19.682-0.065-29.521,0.003   c-5.063,0.035-8.362,3.292-8.405,8.297c-0.082,9.559-0.085,19.605-0.011,29.86C125.027,155.645,128.232,158.785,133.563,158.848z    M155.283,128.564c-0.163,4.632-0.163,9.399,0.001,14.185c-5.663-0.158-10.021,0.097-14.158,0.261   c0.098-1.443,0.093-3.01,0.072-4.01H141v-3.497c0-1.136,0.072-2.312-0.053-3.45c-0.127-1.17-0.235-3.081-0.037-3.789   c0.131-0.038,0.464-0.094,1.003-0.094c0.728,0,1.622,0.098,2.54,0.203c1.252,0.142,2.586,0.288,3.849,0.231   c1.086-0.05,2.181-0.03,3.267-0.016C152.889,128.608,154.226,128.616,155.283,128.564z" fill="#ffffff"/>
	<path d="M77.481,218.58c1.881,0.022,3.762,0.029,5.643,0.029c1.416,0,2.832,0.199,4.248,0.195c1.41-0.004,2.82,0.195,4.23,0.195   h0.157c1.5,0,2.999-0.199,4.498-0.195c3.48,0.007,6.961-0.085,10.441-0.122c5.482-0.059,8.647-3.26,8.682-8.694   c0.061-9.684,0.061-19.528,0-29.211c-0.032-5.523-3.188-8.72-8.657-8.75c-9.729-0.053-19.458-0.058-29.182-0.006   c-5.365,0.026-8.72,3.354-8.753,8.69c-0.06,9.55-0.061,19.369-0.002,29.187C68.819,215.349,71.988,218.513,77.481,218.58z    M92.306,189c1.139,0,2.32-0.361,3.463-0.486c1.028-0.111,2-0.333,2.813-0.333c0.521,0,0.815-0.013,0.965,0.021   c0.206,0.637,0.004,2.392-0.12,3.484c-0.142,1.251-0.289,2.529-0.237,3.808c0.054,1.325,0.041,2.644,0.028,4.048   c-0.01,0.955-0.019,1.933-0.005,2.923c-4.636-0.072-9.311-0.074-14.106-0.002c0.05-4.489-0.076-9.271-0.16-14.146   c1.213,0.036,3.055,0.035,4.055,0.022V189H92.306z" fill="#ffffff"/>
	<path d="M133.537,218.579c1.933,0.024,3.864,0.032,5.797,0.032c1.473,0,2.945-0.005,4.418-0.009   c2.927-0.01,5.852-0.008,8.776-0.002c3.412,0.01,6.822,0.017,10.23-0.02c5.665-0.059,8.8-3.22,8.827-8.901   c0.049-10.491,0.048-19.928-0.004-28.851c-0.033-5.583-3.305-8.797-8.975-8.819c-9.613-0.039-19.229-0.043-28.845,0.002   c-5.541,0.027-8.74,3.168-8.776,8.618c-0.07,10.063-0.069,19.996,0.003,29.523C125.027,215.361,128.223,218.511,133.537,218.579z    M141.148,188.312c4.69,0.033,9.365,0.039,14.089-0.006c-0.026,1.58-0.018,3.182-0.009,4.857c0.005,0.858,0.01,1.749,0.011,2.686   c-0.137,1.261,0.026,2.557,0.186,3.812c0.109,0.86,0.307,2.424,0.135,2.962c-0.148,0.053-0.54,0.15-1.393,0.15   c-0.779,0-1.668-0.295-2.609-0.376c-1.019-0.088-2.073-0.396-3.099-0.396h-0.22c-1.116,0-2.229,0.225-3.343,0.219   c-1.251-0.008-2.5,0.094-3.751,0.113C141.189,197.827,141.19,193.29,141.148,188.312z" fill="#ffffff"/>
	<path d="M244.72,158.846c1.968,0.024,3.936,0.032,5.904,0.032c1.454,0,2.908-0.004,4.362-0.008   c1.448-0.004,2.896-0.008,4.344-0.008l8.743,0.01c1.841,0,3.681-0.003,5.52-0.015c6.032-0.038,9.113-3.025,9.156-8.88   c0.072-10.228,0.071-19.669-0.003-28.862c-0.044-5.591-3.3-8.812-8.933-8.836c-9.618-0.043-19.234-0.045-28.847,0.002   c-5.424,0.027-8.82,3.325-8.865,8.607c-0.083,10.211-0.082,20.147,0.004,29.532C236.15,155.555,239.452,158.783,244.72,158.846z    M259.185,143c-1.096,0-2.21-0.035-3.288,0.094c-0.964,0.115-1.874,0.139-2.639,0.139c-0.596,0-0.887-0.11-0.986-0.133   c-0.207-0.665-0.054-2.776,0.04-3.903c0.025-0.308,0.052-0.197,0.075-1.197H253v-2.509c0-1.136-0.276-2.315-0.4-3.454   c-0.127-1.166-0.408-3.067-0.215-3.774c0.137-0.044,0.413-0.112,1.028-0.112c0.792,0,1.709,0.108,2.7,0.224   c1.105,0.128,2.24,0.261,3.383,0.261c1.123-0.001,2.27-0.137,3.382-0.267c1.004-0.118,1.95-0.229,2.751-0.229   c0.68,0,0.991,0.082,1.088,0.107c0.251,0.704,0.068,2.772-0.041,4.031c-0.092,1.051-0.188,2.139-0.187,3.179   c0.001,1.082,0.105,2.209,0.205,3.301c0.116,1.256,0.328,3.561,0.033,4.26c-0.107,0.045-0.439,0.151-1.214,0.151   c-0.827,0-1.802,0.056-2.833-0.065c-1.146-0.134-2.33-0.104-3.485-0.104H259.185z M259.195,145.66L259.195,145.66L259.195,145.66   L259.195,145.66z" fill="#ffffff"/>
	<path d="M273.924,172.012c-9.615-0.045-19.231-0.04-28.845-0.002c-5.589,0.022-8.947,3.322-8.984,8.826   c-0.063,9.043-0.065,18.482-0.005,28.857c0.033,5.672,3.179,8.829,8.856,8.889c3.323,0.035,6.645,0.028,9.966,0.019   c2.938-0.006,5.873-0.008,8.809,0.002c1.506,0.004,3.012,0.009,4.518,0.009c1.976,0,3.951-0.008,5.927-0.032   c5.396-0.069,8.519-3.142,8.568-8.428c0.092-9.538,0.093-19.476,0.003-29.536C282.688,175.253,279.394,172.037,273.924,172.012z    M252.452,188.309c4.664,0.052,9.271,0.063,14.046-0.001c-0.047,1.557-0.029,3.101-0.012,4.603   c0.009,0.775,0.018,1.551,0.018,2.326c0,0.785-0.007,1.569-0.014,2.354c-0.014,1.592-0.027,3.229,0.018,4.873   c-2.13-0.043-4.341-0.064-6.726-0.064c-2.426,0-4.852,0.022-7.327,0.058C252.523,197.303,252.523,192.652,252.452,188.309z" fill="#ffffff"/>
	<path d="M162.487,231.165c-9.508-0.052-19.018-0.054-28.52,0.003c-5.821,0.032-8.933,3.183-8.998,9.109   c-0.036,3.35-0.027,6.746-0.019,10.031c0.004,1.414,0.008,2.829,0.008,4.243c0,1.433-0.004,2.864-0.008,4.297   c-0.008,3.268-0.017,6.646,0.021,9.979c0.066,5.934,3.109,8.958,9.045,8.989c4.729,0.023,9.457,0.036,14.187,0.036   c4.776,0,9.554-0.013,14.329-0.038c5.815-0.031,9.031-3.246,9.056-9.054c0.04-9.691,0.04-19.283,0-28.513   C171.563,234.51,168.245,231.199,162.487,231.165z M148.384,261c-1.17,0-2.388,0.328-3.565,0.457   c-1.066,0.115-2.072,0.323-2.918,0.323c-0.596,0-0.914-0.008-1.063-0.047c-0.238-0.646-0.019-2.599,0.102-3.687   c0.143-1.286,0.29-2.604,0.235-3.914c-0.032-0.773-0.012-1.571,0.009-2.423c0.031-1.297,0.064-2.635-0.083-4.032   c-0.008-0.075-0.014-0.144-0.02-0.208c0.054,0.003,0.109,0.006,0.165,0.01c1.98,0.116,4.113,0.174,6.521,0.174   c2.514,0,5.051-0.062,7.509-0.122c-0.158,4.694-0.158,9.422-0.001,14.071c-0.754-0.035-1.757-0.052-2.698-0.052   c-0.461,0-0.576,0.004-1.576,0.01V261H148.384z" fill="#ffffff"/>
	<path d="M115.403,254.667c0-1.449,0.003-2.899,0.007-4.349c0.008-3.308,0.016-6.615-0.017-9.925   c-0.06-6.099-3.16-9.204-9.216-9.231c-9.396-0.042-18.789-0.047-28.185,0.001c-6.009,0.031-9.196,3.248-9.218,9.304   c-0.03,9.738-0.029,19.218,0.002,28.175c0.024,7.531,4.872,9.145,8.937,9.171c4.809,0.028,9.617,0.043,14.427,0.043   c4.809,0,9.617-0.015,14.428-0.044c5.698-0.037,8.748-3.103,8.821-8.866c0.04-3.301,0.03-6.646,0.021-9.883   C115.407,257.598,115.403,256.133,115.403,254.667z M99.222,261.611c-2.115-0.033-4.335-0.05-6.751-0.05   c-2.447,0-4.896,0.017-7.343,0.041c0.022-1.548,0.014-3.091,0.006-4.595c-0.005-0.79-0.009-1.581-0.009-2.372   c0-0.78,0.005-1.562,0.009-2.342c0.01-1.553,0.02-3.15-0.011-4.751c4.441,0.073,9.271,0.068,14.1,0.001   C99.163,251.904,99.162,256.525,99.222,261.611z M83.713,264.615L83.713,264.615l-0.097-3.001c0.04,0.004,0.081,0.012,0.122,0.021   L83.713,264.615z" fill="#ffffff"/>
</g>
</svg>