<svg xmlns="http://www.w3.org/2000/svg" xmlns:xlink="http://www.w3.org/1999/xlink" version="1.1" id="Layer_1" x="0px" y="0px" width="350px" height="350px" viewBox="0 0 350 350" enable-background="new 0 0 350 350" xml:space="preserve">
<g>
	<path fill-rule="evenodd" clip-rule="evenodd" d="M168.572,10.412c3.643,0,7.285,0,10.93,0c0.924,0.228,1.84,0.497,2.773,0.676   c12.074,2.313,21.037,8.737,26.023,20.115c1.008,2.3,2.221,2.872,4.543,2.836c7.064-0.108,14.141-0.152,21.199,0.116   c5.43,0.207,7.598,2.786,7.615,8.196c0.012,3.609,0.002,7.22,0.002,11.16c1.498,0,2.646-0.001,3.797,0   c8.676,0.004,17.354-0.132,26.027,0.043c18.488,0.373,32.779,14.974,32.785,33.444c0.021,73.797-0.006,147.595,0.021,221.392   c0.006,13.402-6.553,22.467-18.359,27.98c-3.145,1.471-6.65,2.166-9.99,3.217c-67.291,0-134.584,0-201.877,0   c-0.803-0.232-1.592-0.521-2.406-0.689c-15.4-3.207-25.883-14.822-25.896-29.23c-0.064-74.557-0.068-149.114-0.002-223.669   c0.016-15.757,12.08-30.009,27.717-31.761c10.059-1.127,20.309-0.547,30.473-0.724c1.359-0.023,2.723-0.003,4.396-0.003   c0-3.651,0-6.946,0.002-10.24c0.002-7.002,2.074-9.16,9.178-9.26c6.426-0.091,12.855-0.123,19.279,0.03   c2.164,0.052,3.18-0.658,4.055-2.624c4.029-9.057,10.861-15.254,20.084-18.774C163.408,11.701,166.023,11.145,168.572,10.412z    M241.656,69.5c0,6.146,0.059,12.13-0.018,18.112c-0.068,5.425-3.463,8.96-8.801,8.966c-38.67,0.043-77.342,0.042-116.014,0.001   c-5.1-0.005-8.334-3.324-8.451-8.531c-0.113-5.032-0.027-10.069-0.029-15.104c0-1.139,0-2.277,0-3.328   c-0.734-0.206-1.039-0.364-1.342-0.365c-9.105-0.026-18.211-0.127-27.314-0.026c-11.156,0.124-18.369,7.549-18.373,18.728   c-0.008,22.925-0.002,45.849-0.002,68.773c0,50.347-0.004,100.695,0.002,151.042c0,8.064,3.689,13.08,11.537,15.215   c2.541,0.691,5.279,0.922,7.926,0.924c62.775,0.049,125.549,0.039,188.322,0.037c1.072,0,2.146,0.021,3.213-0.059   c11.008-0.832,16.377-6.609,16.377-17.602c0-72.309,0-144.618,0-216.924c0-1.072,0.031-2.145-0.01-3.214   c-0.324-8.343-6.596-16.042-14.736-16.5C263.393,69.051,252.783,69.5,241.656,69.5z M124.232,80.79c34.049,0,67.73,0,101.455,0   c0-10.453,0-20.679,0-31.159c-6.928,0-13.654,0.015-20.383-0.005c-5.291-0.017-8.193-2.215-9.604-7.208   c-3.004-10.628-11.238-17.409-21.137-17.405c-10.002,0.004-18.434,6.884-21.473,17.522c-1.402,4.903-4.236,7.058-9.342,7.094   c-1.391,0.01-2.783,0.002-4.176,0.002c-5.1,0-10.197,0-15.342,0C124.232,60.244,124.232,70.399,124.232,80.79z" fill="#ffffff"/>
	<path fill-rule="evenodd" clip-rule="evenodd" d="M212.232,139.72c14.662,0,29.326-0.015,43.988,0.01   c4.488,0.008,7.615,2.161,8.613,5.782c1.203,4.359-1.574,8.85-6.068,9.658c-1.357,0.243-2.768,0.251-4.156,0.252   c-28.254,0.014-56.51,0.011-84.766,0.006c-1.068,0-2.146,0.015-3.205-0.101c-4.426-0.484-7.283-3.646-7.211-7.914   c0.07-4.181,3.135-7.403,7.533-7.639c3.203-0.172,6.42-0.053,9.631-0.054C188.473,139.718,200.352,139.72,212.232,139.72z" fill="#ffffff"/>
	<path fill-rule="evenodd" clip-rule="evenodd" d="M212.326,265.09c14.557,0,29.113-0.02,43.67,0.012   c5.525,0.012,9.027,3.088,9.057,7.805c0.025,3.75-2.396,6.822-6.068,7.621c-0.934,0.203-1.906,0.324-2.861,0.324   c-29.221,0.018-58.441,0.035-87.66-0.004c-5.232-0.008-8.512-2.631-8.979-6.855c-0.578-5.238,2.967-8.871,8.852-8.889   C183,265.064,197.664,265.092,212.326,265.09z" fill="#ffffff"/>
	<path fill-rule="evenodd" clip-rule="evenodd" d="M212.182,218.098c-14.77,0-29.539,0.023-44.311-0.014   c-4.799-0.014-8.076-2.84-8.408-7.055c-0.363-4.594,2.619-8.129,7.229-8.467c1.705-0.125,3.424-0.074,5.135-0.074   c27.398-0.004,54.799-0.004,82.197-0.002c1.178,0.002,2.357-0.021,3.529,0.055c4.408,0.289,7.457,3.41,7.5,7.631   c0.043,4.332-3.119,7.783-7.6,7.869c-7.275,0.141-14.555,0.055-21.834,0.057C227.807,218.102,219.994,218.1,212.182,218.098z" fill="#ffffff"/>
	<path fill-rule="evenodd" clip-rule="evenodd" d="M109.426,208.494c7.635-7.281,15.578-14.91,23.582-22.473   c3.75-3.543,8.082-3.75,11.477-0.715c3.385,3.025,3.898,7.66,0.66,10.803c-10.357,10.059-20.838,19.996-31.41,29.828   c-3.156,2.936-7.324,2.662-10.4-0.395c-5.387-5.352-10.691-10.787-15.912-16.303c-3.311-3.496-3.24-8.561-0.086-11.533   c3.154-2.971,7.611-2.625,11.211,0.768C102.043,201.77,105.611,204.986,109.426,208.494z" fill="#ffffff"/>
	<path fill-rule="evenodd" clip-rule="evenodd" d="M109.352,145.846c7.721-7.347,15.684-14.952,23.68-22.525   c3.283-3.11,6.57-3.679,9.891-1.835c4.744,2.636,5.885,8.401,2.008,12.166c-10.283,9.983-20.705,19.824-31.199,29.586   c-3.195,2.973-7.258,2.709-10.363-0.385c-5.305-5.283-10.545-10.635-15.707-16.057c-3.508-3.685-3.563-8.688-0.338-11.765   c3.082-2.943,7.838-2.49,11.455,0.977C102.166,139.254,105.646,142.406,109.352,145.846z" fill="#ffffff"/>
	<path fill-rule="evenodd" clip-rule="evenodd" d="M108.99,271.582c8.111-7.725,16.141-15.404,24.213-23.039   c3.461-3.273,7.328-3.584,10.719-1.004c3.936,2.996,4.609,8.006,1.064,11.445c-10.285,9.98-20.699,19.828-31.188,29.592   c-3.303,3.076-7.369,2.758-10.607-0.486c-5.211-5.225-10.385-10.49-15.479-15.828c-3.521-3.689-3.635-8.666-0.459-11.779   c3.113-3.057,7.984-2.617,11.664,1.1c3.16,3.189,6.273,6.426,9.412,9.639C108.4,271.293,108.512,271.322,108.99,271.582z" fill="#ffffff"/>
</g>
</svg>