<svg xmlns="http://www.w3.org/2000/svg" xmlns:xlink="http://www.w3.org/1999/xlink" version="1.1" id="Layer_1" x="0px" y="0px" width="350px" height="350px" viewBox="0 0 350 350" enable-background="new 0 0 350 350" xml:space="preserve">
<g>
	<path fill-rule="evenodd" clip-rule="evenodd" d="M351.211,93.923c-2.21,13.146-7.462,25.079-14.559,36.257   c-10.396,16.375-22.979,30.941-36.893,44.394c-1.942,1.881-3.943,3.703-6.207,5.823c-2.613-2.465-5.217-4.808-7.696-7.275   c-16.027-15.946-30.684-32.972-41.175-53.19c-5.584-10.767-9.192-22.023-8.69-34.419c1.062-26.157,22.647-49.846,48.581-53.605   c34.324-4.976,62.631,19.712,66.134,49.664c0.043,0.378,0.331,0.727,0.505,1.088C351.211,86.413,351.211,90.168,351.211,93.923z    M293.307,154.019c0.425-0.171,0.666-0.196,0.793-0.329c12.604-13.28,24.166-27.353,32.4-43.842   c4.291-8.592,7.014-17.488,5.422-27.402c-3.469-21.593-25.331-36.419-46.877-31.505c-21.832,4.979-35.25,27.402-28.521,48.426   c2.042,6.382,5.104,12.55,8.47,18.372C272.746,131.143,282.672,142.922,293.307,154.019z" fill="#ffffff"/>
	<path fill-rule="evenodd" clip-rule="evenodd" d="M30.789,220.338c0.566-2.513,1.084-5.039,1.709-7.537   c6.728-26.89,30.439-44.568,58.708-43.796c25.983,0.71,48.944,20.73,53.935,47.047c2.532,13.355-0.333,25.863-6.029,37.915   c-8.245,17.443-20.042,32.381-32.961,46.5c-5.551,6.064-11.365,11.888-17.49,18.268c-25.316-25.713-50.55-50.416-57.871-87.131   C30.789,227.849,30.789,224.094,30.789,220.338z M88.426,292.353c5.155-5.978,10.059-11.356,14.613-17.015   c8.915-11.072,17.07-22.656,21.868-36.214c9.825-27.751-13.913-55.743-42.896-50.907c-22.039,3.678-39.182,27.398-29.763,51.882   c4.735,12.311,11.944,23.111,20.095,33.317C77.398,279.742,82.818,285.776,88.426,292.353z" fill="#ffffff"/>
	<path fill-rule="evenodd" clip-rule="evenodd" d="M255.929,158.423c0,6.28,0,12.199,0,18.578c-1.321,0-2.532-0.001-3.742,0   c-15.437,0.009-30.872-0.17-46.304,0.093c-10.502,0.179-18.085,5.586-22.182,15.104c-4.175,9.696-2.397,18.842,4.637,26.728   c5.34,5.988,12.344,8.176,20.22,8.156c16.999-0.046,34-0.11,50.998,0.01c24.593,0.176,44.067,20.468,43.397,45.045   c-0.635,23.278-19.589,42.262-43.258,42.411c-43.904,0.273-87.812,0.078-131.717,0.072c-0.509,0-1.02-0.088-1.771-0.158   c0-6.141,0-12.202,0-18.606c1.435,0,2.763,0,4.093,0c42.446,0,84.891,0.015,127.338-0.008c13.82-0.008,23.972-8.269,26.162-21.179   c2.463-14.508-8.617-28.433-23.373-28.708c-17.307-0.322-34.623-0.128-51.935-0.109c-9.404,0.01-18.154-2.148-26.053-7.408   c-16.024-10.672-23.209-30.349-17.804-48.813c5.358-18.31,21.951-31.126,41.054-31.356c15.954-0.193,31.913-0.047,47.868-0.038   C254.27,158.235,254.979,158.344,255.929,158.423z" fill="#ffffff"/>
	<path fill-rule="evenodd" clip-rule="evenodd" d="M293.5,70.225c10.226-0.035,18.748,8.468,18.736,18.691   c-0.014,10.214-8.59,18.734-18.781,18.66c-10.113-0.074-18.493-8.451-18.555-18.548C274.835,78.776,283.26,70.26,293.5,70.225z" fill="#ffffff"/>
	<path fill-rule="evenodd" clip-rule="evenodd" d="M107.1,226.636c-0.037,10.22-8.629,18.722-18.809,18.614   c-10.109-0.107-18.465-8.494-18.529-18.6c-0.065-10.204,8.446-18.752,18.672-18.752C98.675,207.897,107.136,216.391,107.1,226.636z   " fill="#ffffff"/>
</g>
</svg>