<?xml version="1.0" encoding="utf-8"?>
<!-- Generator: Adobe Illustrator 16.0.0, SVG Export Plug-In . SVG Version: 6.00 Build 0)  -->
<!DOCTYPE svg PUBLIC "-//W3C//DTD SVG 1.1//EN" "http://www.w3.org/Graphics/SVG/1.1/DTD/svg11.dtd">
<svg version="1.1" id="Layer_1" xmlns="http://www.w3.org/2000/svg" xmlns:xlink="http://www.w3.org/1999/xlink" x="0px" y="0px"
	 width="350px" height="350px" viewBox="0 0 350 350" enable-background="new 0 0 350 350" xml:space="preserve">
<g>
	<path d="M317.337,264.995c-1.628-1.683-4.039-1.891-5.711-1.901c-1.697-0.01-3.392-0.013-5.097-0.013
		c-1.285,0-2.42,0.002-3.719,0.004c-0.653,0-1.811,0.001-1.811,0.002v-8.984c0,0,0.329-0.001,0.568-0.003
		c6.25-0.045,8.283-2.164,8.289-8.399c0.004-6.01-0.032-12.021-0.04-18.03c-0.009-5.891-2.226-8.089-8.124-8.109
		c-1.602-0.006-3.213-0.008-4.844-0.008l-3.047,0.002c17.468-16.183,23.051-35.371,16.604-57.112
		c-3.504-11.813-9.683-21.176-18.362-27.829c-7.896-6.052-17.905-9.892-29.772-11.427c-0.008-0.215-0.014-0.424-0.016-0.631
		c-0.041-4.902-0.076-9.804-0.111-14.705c-0.1-13.658-0.202-27.781-0.422-41.674c-0.049-3.212-0.682-6.514-1.83-9.546
		c-5.46-14.433-18.154-22.712-34.826-22.718c-21.737-0.008-43.465,0.029-65.201,0.029C130.957,33.942,102.04,34,73.132,34h-0.646
		c-3.396,0-6.909-0.041-10.38,0.289C45.154,35.895,31.535,50.43,31.102,67.404c-0.143,5.564-0.12,11.202-0.098,16.664
		c0.009,2.278,0.018,4.552,0.016,6.83c-0.004,3.122,0.295,5.36,1.789,6.882c1.506,1.535,3.723,2.03,6.811,2.032L57.059,100h14.887
		h14.886H88v1.812v31.273c0,47.894,0.133,97.417,0.178,146.127c0.004,2.9,0.191,6.701,1.088,10.382
		c1.924,7.911,6.294,14.628,12.577,19.425c6.254,4.775,14.003,7.302,22.374,7.306c22.984,0.012,45.97,0.015,68.954,0.015
		c18.323,0,36.653-0.002,54.979-0.004l34.597-0.004c1.028,0,1.885-0.021,2.69-0.068c16.108-0.934,29.49-11.909,32.541-26.691
		c0.965-4.678,0.973-9.53,0.98-14.223c0.002-1.617,0.005-3.289,0.049-4.91C319.072,268.006,318.526,266.225,317.337,264.995z
		 M88,82.665V87H43.541c0.055-2,0.072-4.174,0.09-6.129c0.053-5.955,0.104-11.662,1.092-17.167
		c1.723-9.592,10.803-16.865,21.121-16.865c0.887,0,1.779,0.035,2.654,0.144c11.25,1.4,19.621,10.959,19.607,22.25
		C88.1,73.677,88,78.111,88,82.665z M297,232v9h-77v-9H297z M287,254v9h-76v-9H287z M258.33,136.103c0.18,0,0.361,0.001,0.541,0.004
		c11.078,0.135,21.475,4.635,29.272,12.672c7.839,8.08,12.046,18.693,11.845,29.888c-0.439,24.503-20.883,40.963-39.7,40.963
		c-0.705,0-1.416-0.023-2.113-0.068l-0.124-0.008l-0.123,0.008c-0.671,0.039-1.354,0.06-2.029,0.06
		c-9.975,0-20.028-4.367-27.582-11.982c-7.984-8.049-12.332-18.722-12.241-30.053C216.26,154.712,235.215,136.103,258.33,136.103z
		 M145.561,275.041c0.053,3.05,0.104,5.931-0.263,8.768c-1.481,11.494-10.736,19.521-22.507,19.521
		c-0.393,0-0.789-0.009-1.187-0.026c-11.019-0.496-19.829-9.71-20.495-21.431c-0.047-0.847-0.078-1.701-0.076-2.606L101,278.553
		v-31.156c0-49.887,0-99.772,0-149.66v-1.476c0-6.531,0.041-13.284,0.27-19.902c0.328-9.404-0.469-20.007-8.238-29.432L127.1,47
		h35.796c21.15,0,42.308-0.074,63.458-0.064c10.406,0.006,18.842,5.935,22.013,15.539c0.408,1.234,0.601,2.17,0.606,2.984
		c0.125,17.705,0.209,35.699,0.289,53.11l0.023,5.136c-23.791,5.072-38.668,18.552-44.23,40.635
		c-5.292,21.012,0.51,39.66,17.25,54.66h-1.894l-4.501,0.279c-6.704,0.01-8.774,2.094-8.779,8.809
		c-0.002,3.203-0.131,6.546-0.131,9.894v3.318l-0.318-0.002c-0.446,0-0.818,0.003-1.258,0.009c-5.291,0.079-7.535,2.388-7.584,7.721
		c-0.025,3.011,0.066,6.065,0.072,9.02c0.002,1.291,0.088,2.582,0.088,3.872V263h-1.5h-12.262h-12.262
		c-6.131,0-12.263,0.043-18.394,0.047c-5.904,0.004-8.013,2.145-8.058,8.121C145.516,272.457,145.538,273.781,145.561,275.041z
		 M306.316,278.166c-0.111,2.908-0.217,5.68-0.744,8.289c-1.828,9.039-10.701,16.437-20.201,16.825
		c-1.441,0.059-2.9,0.073-4.012,0.073c-0.554,0-1.107,0-1.662-0.002c-0.559-0.002-1.118-0.179-1.677-0.179
		c-23.624,0.003-47.249-0.173-70.873-0.173h-28.47h-28.074c0.26,0,0.52-0.697,0.776-1.129c1.998-3.354,4.063-6.732,5.257-10.541
		c1.205-3.85,1.523-7.956,1.832-11.924c0.087-1.119,0.176-2.406,0.285-3.406h147.649C306.37,277,306.344,277.471,306.316,278.166z"
		/>
	<path d="M186.252,231.251c3.115-0.721,5.011-3.147,4.947-6.333c-0.059-3.083-1.977-5.376-5.13-6.132
		c-0.717-0.172-1.421-0.193-1.953-0.193c-0.191,0-0.383,0.003-0.574,0.006c-0.168,0.003-0.335-0.294-0.502-0.294
		c-5.392-0.004-10.784-0.305-16.177-0.305h-6.073h-6.073H138.41c-1.313,0-2.627,0.297-3.939,0.293
		c-1.317-0.006-2.635,0.141-3.952,0.141c-2.167,0-3.941,0.086-5.586,0.11c-4.089,0.062-6.856,2.671-6.884,6.436
		c-0.027,3.752,2.545,6.272,6.715,6.549c0.308,0.02,0.639,0.038,1.041,0.038c0.189,0,0.378-0.281,0.567-0.283
		c0.175-0.002,0.351-0.283,0.525-0.283h9.657h9.656c12.063,0,24.128,0.283,36.189,0.273
		C183.582,231.273,184.921,231.558,186.252,231.251z M184.116,220.593c0.021,0,0.04,0.002,0.06,0.002c-0.127,0-0.254,0-0.381,0.002
		C183.902,220.595,184.009,220.593,184.116,220.593z"/>
	<path d="M184.116,220.593c-0.107,0-0.214,0.002-0.321,0.004c0.127-0.002,0.254-0.002,0.381-0.002
		C184.156,220.595,184.137,220.593,184.116,220.593z"/>
	<path d="M173.495,158.29c-7.667-0.012-15.334-0.019-23.001-0.019c-7.947,0-15.896,0.007-23.844,0.022
		c-4.35,0.008-7.23,2.453-7.339,6.228c-0.05,1.741,0.522,3.278,1.655,4.448c1.336,1.379,3.317,2.111,5.728,2.118
		c3.267,0.009,6.532,0.013,9.8,0.013l6.813-0.004l6.812-0.002l6.84,0.002l6.843,0.002c3.247,0,6.495-0.002,9.741-0.01
		c2.441-0.005,4.435-0.717,5.766-2.057c1.121-1.129,1.71-2.639,1.702-4.365C180.992,160.8,178.043,158.297,173.495,158.29z"/>
	<path d="M150.766,86h-0.431l-6.618,0.169l-6.62,0.084c-3.251,0-6.503,0.044-9.754,0.052c-5.475,0.013-7.486,3.285-7.544,6.323
		c-0.033,1.778,0.544,3.336,1.67,4.486c1.312,1.339,3.289,2.055,5.72,2.06c7.907,0.015,15.813,0.023,23.721,0.023
		c7.706,0,15.413-0.005,23.12-0.019c2.418-0.004,4.41-0.733,5.762-2.109c1.137-1.159,1.721-2.68,1.691-4.401
		c-0.068-3.828-3.044-6.309-7.581-6.321c-3.215-0.008-6.429-0.011-9.644-0.011l-6.747-0.168L150.766,86z"/>
	<path d="M152.537,120.964c-2.41,0.006-4.4,0.732-5.757,2.104c-1.142,1.154-1.737,2.672-1.722,4.388
		c0.033,3.868,2.988,6.378,7.529,6.393c2.988,0.009,5.977,0.013,8.965,0.013l6.233-0.004l6.231-0.002l6.191,0.002l6.192,0.003
		c2.92,0,5.841-0.003,8.761-0.011c5.468-0.016,7.511-3.244,7.6-6.262c0.051-1.751-0.52-3.294-1.652-4.463
		c-1.369-1.411-3.443-2.16-6.002-2.164c-7.033-0.012-14.064-0.02-21.098-0.02C166.853,120.94,159.694,120.948,152.537,120.964z"/>
	<path d="M126.332,83.215c5.128,0.03,10.34,0.046,15.49,0.046c4.895,0,9.87-0.014,14.787-0.041c2.183-0.012,4.102-0.76,5.404-2.104
		c1.146-1.184,1.753-2.777,1.707-4.486c-0.099-3.725-3.039-6.248-7.315-6.279c-1.995-0.016-3.989-0.02-5.983-0.02
		c-1.48,0-2.961,0.002-4.439,0.005s-2.955,0.005-4.433,0.005c-1.491,0-2.983-0.003-4.474-0.006
		c-1.494-0.004-2.988-0.007-4.482-0.007c-2.063,0-4.127,0.006-6.19,0.026c-2.187,0.021-4.102,0.771-5.394,2.109
		c-1.137,1.176-1.739,2.765-1.697,4.473C119.403,80.609,122.289,83.191,126.332,83.215z"/>
	<path d="M125.541,215.572c1.975,0.017,3.949,0.021,5.924,0.021c1.441,0,2.883-0.003,4.325-0.006
		c1.439-0.002,2.879-0.005,4.318-0.005c1.417,0,2.834,0.002,4.251,0.004c1.42,0.002,2.839,0.004,4.258,0.004
		c1.828,0,3.655-0.003,5.482-0.014c5.695-0.03,7.771-3.326,7.816-6.4c0.025-1.739-0.561-3.269-1.695-4.422
		c-1.375-1.398-3.451-2.14-6.004-2.146c-4.696-0.009-9.391-0.014-14.085-0.014c-4.817,0-9.638,0.005-14.456,0.016
		c-2.611,0.006-4.616,0.7-5.957,2.065c-1.121,1.141-1.698,2.704-1.67,4.52C118.113,213.15,120.914,215.534,125.541,215.572z"/>
	<path d="M195.825,138.729c-4.941-0.035-9.831-0.054-14.831-0.054s-10.151,0.019-15.158,0.056c-3.995,0.029-6.953,2.709-6.99,6.373
		c-0.018,1.711,0.564,3.232,1.712,4.399c1.301,1.324,3.224,2.063,5.427,2.08c1.949,0.016,3.896,0.021,5.848,0.021
		c1.453,0,2.906-0.003,4.359-0.006c1.452-0.002,2.903-0.005,4.354-0.005c1.471,0,2.942,0.003,4.413,0.005
		c1.516,0.003,3.031,0.006,4.547,0.006c2.059,0,4.119-0.005,6.178-0.021c4.066-0.031,6.91-2.498,7.074-6.14
		c0.079-1.747-0.482-3.38-1.635-4.595C199.842,139.498,197.979,138.745,195.825,138.729z"/>
	<path d="M126.116,151.577c1.042,0.022,2.158,0.033,3.511,0.033c0.898,0,1.797-0.005,2.694-0.01
		c0.892-0.004,1.782-0.008,2.674-0.008c0.917,0,1.835,0.005,2.752,0.011c0.925,0.005,1.851,0.011,2.776,0.011
		c1.404,0,2.563-0.013,3.645-0.041c3.832-0.098,6.545-2.691,6.598-6.306c0.057-3.741-2.6-6.415-6.459-6.5
		c-3.07-0.067-6.242-0.101-9.43-0.101c-2.895,0-5.886,0.027-8.893,0.083c-1.994,0.036-3.778,0.793-5.022,2.132
		c-1.157,1.246-1.742,2.883-1.646,4.607C119.512,148.994,122.309,151.497,126.116,151.577z"/>
	<path d="M129.942,120.954c-1.591,0-3.237,0.055-4.894,0.164c-3.297,0.217-5.485,2.555-5.711,6.102
		c-0.21,3.262,2.385,6.203,5.785,6.555c0.582,0.06,1.197,0.088,1.936,0.088c0.488,0,0.979,0.081,1.469,0.068
		c0.456-0.012,0.912,0.07,1.367,0.07h0.83c0.201,0,0.402-0.08,0.604-0.073c0.527,0.02,1.055-0.007,1.58-0.007
		c0.814,0,1.492-0.069,2.134-0.166c3.404-0.515,5.454-2.86,5.482-6.255c0.03-3.588-2.128-6.083-5.499-6.346
		C133.383,121.025,131.673,120.954,129.942,120.954z"/>
	<path d="M255.635,184.262c0.52,0.072,1.047,0.129,1.574,0.186c1.313,0.142,2.555,0.275,3.611,0.657
		c3.313,1.2,5.137,4.715,4.335,8.357c-0.694,3.155-3.832,5.626-7.146,5.626c-0.094,0-0.188-0.002-0.281-0.006
		c-3.658-0.157-6.51-2.94-6.936-6.771c-0.574-5.135-3.687-6.964-6.408-6.964c-0.314,0-0.639,0.022-0.965,0.067
		c-1.727,0.233-3.166,1.055-4.159,2.374c-1.197,1.588-1.64,3.739-1.278,6.22c1.131,7.76,5.348,13.312,12.535,16.502
		c0.393,0.174,1.014,0.942,1.279,1.624c1.215,3.123,3.292,4.865,6.174,4.865h0.11c3.296,0,5.778-2.178,6.175-5.273
		c0.08-0.621,0.084-0.695,1.316-1.207l0.094-0.064c9.067-3.784,14.052-13.115,12.123-22.677c-1.853-9.181-9.5-15.68-19.031-16.162
		c-4.895-0.248-7.95-3.051-7.974-7.314c-0.019-3.451,2.708-6.877,5.61-7.045c0.352-0.02,0.694-0.03,1.027-0.03
		c4.861,0,7.291,2.057,7.877,6.67c0.769,6.053,4.734,6.706,6.402,6.706c0.252,0,0.514-0.013,0.777-0.039
		c1.779-0.169,3.27-0.947,4.311-2.25c1.202-1.503,1.68-3.538,1.381-5.886c-1.022-8.048-5.244-13.716-12.547-16.846
		c-1.223-0.523-1.223-0.428-1.273-1.074c-0.26-3.333-2.777-5.509-6.266-5.509h-0.004h-0.041c-3.483,0-5.949,2.069-6.281,5.417
		c-0.069,0.698-0.076,0.723-1.225,1.19c-8.427,3.418-13.715,12.132-12.574,20.751C239.225,175.937,246.162,182.951,255.635,184.262z
		"/>
</g>
</svg>
