<?xml version="1.0" encoding="utf-8"?>
<!-- Generator: Adobe Illustrator 16.0.0, SVG Export Plug-In . SVG Version: 6.00 Build 0)  -->
<!DOCTYPE svg PUBLIC "-//W3C//DTD SVG 1.1//EN" "http://www.w3.org/Graphics/SVG/1.1/DTD/svg11.dtd">
<svg version="1.1" id="Layer_1" xmlns="http://www.w3.org/2000/svg" xmlns:xlink="http://www.w3.org/1999/xlink" x="0px" y="0px"
	 width="350px" height="350px" viewBox="0 0 350 350" enable-background="new 0 0 350 350" xml:space="preserve">
<g>
	<path fill-rule="evenodd" clip-rule="evenodd" fill="#030303" d="M161.854,14.732c8.346,0,16.693,0,25.039,0
		c0.245,0.873,0.978,0.566,1.539,0.611c20.155,1.599,39.452,6.639,57.37,15.936c49.376,25.62,78.782,65.931,87.817,120.953
		c0.562,3.408,0.271,6.952,1.629,10.229c0,8.556,0,17.109,0,25.665c-0.861,0.233-0.599,0.969-0.655,1.531
		c-3.382,34.183-15.732,64.748-38.735,90.272c-41.297,45.827-93.027,63.635-153.416,51.76
		C75.799,318.586,26.304,264.85,16.426,198.034c-0.49-3.308-0.299-6.746-1.675-9.907c0-8.764,0-17.526,0-26.29
		c1.012-0.328,0.568-1.205,0.664-1.847c0.886-5.868,1.424-11.81,2.659-17.602C32.243,75.971,85.133,26.284,151.947,16.407
		C155.255,15.918,158.693,16.108,161.854,14.732z M175.074,29.267C94.887,29.145,29.657,94.236,29.285,174.749
		c-0.371,80.135,65.181,145.822,145.641,145.948c80.187,0.123,145.416-64.97,145.79-145.483
		C321.085,95.079,255.533,29.391,175.074,29.267z"/>
	<path fill-rule="evenodd" clip-rule="evenodd" fill="#030303" d="M209.741,237.888c-0.806,3.167-1.493,5.741-2.107,8.334
		c-0.2,0.844-0.728,1.15-1.469,1.403c-7.267,2.49-14.246,5.981-21.93,7.037c-9.106,1.253-18.088,1.217-26.103-4.443
		c-6.146-4.341-8.881-10.246-8.517-17.674c0.667-13.603,6.009-26.084,9.403-39.03c1.687-6.435,3.865-12.765,4.072-19.496
		c0.235-7.703-3.287-11.101-11.082-10.741c-3.553,0.165-7.037,0.755-10.372,2.051c-0.896,0.35-1.94,0.672-2.675,0.04
		c-0.832-0.715,0.401-1.402,0.428-2.204c0.18-5.427,3.641-7.4,8.391-8.986c9.127-3.048,18.147-6.242,27.96-5.501
		c11.413,0.862,21.979,7.573,22.037,20.522c0.028,5.941-0.805,11.791-2.45,17.561c-3.362,11.795-7.327,23.427-9.861,35.448
		c-0.512,2.435-0.912,4.926-1.035,7.405c-0.382,7.618,2.802,10.823,10.538,11.006C199.885,240.733,204.646,240.023,209.741,237.888z
		"/>
	<path fill-rule="evenodd" clip-rule="evenodd" fill="#030303" d="M211.486,113.217c-0.281,8.215-4.361,13.529-11.291,16.87
		c-8.453,4.076-18.852,2.067-25.19-4.796c-7.262-7.865-5.772-19.766,3.304-26.426c11.68-8.566,29.398-2.806,32.642,10.634
		C211.266,110.803,211.341,112.164,211.486,113.217z"/>
</g>
</svg>
