<?xml version="1.0" encoding="utf-8"?>
<!-- Generator: Adobe Illustrator 16.0.0, SVG Export Plug-In . SVG Version: 6.00 Build 0)  -->
<!DOCTYPE svg PUBLIC "-//W3C//DTD SVG 1.1//EN" "http://www.w3.org/Graphics/SVG/1.1/DTD/svg11.dtd">
<svg version="1.1" id="Layer_1" xmlns="http://www.w3.org/2000/svg" xmlns:xlink="http://www.w3.org/1999/xlink" x="0px" y="0px"
	 width="350px" height="350px" viewBox="0 0 350 350" enable-background="new 0 0 350 350" xml:space="preserve">
<g>
	<path fill-rule="evenodd" clip-rule="evenodd" d="M303.413,176.57c-0.947-41.455-15.236-73.974-44.148-99.779
		c-5.539-4.943-8.33-10.645-6.342-17.939c3.149-11.555,16.74-15.402,26.128-7.348c19.885,17.063,34.804,37.777,44.554,62.103
		c36.083,90.028-14.377,190.96-107.961,216.077c-68.167,18.293-143.323-12.219-177.729-73.86
		C3.715,194.549,7.471,134.357,47.904,76.947c6.333-8.993,14.664-16.664,22.566-24.443c6.894-6.787,16.916-6.209,23.045,0.547
		c6.06,6.68,5.553,16.75-1.604,23.098c-15.106,13.398-26.884,29.156-34.588,47.846c-31.674,76.845,14.822,162.875,96.488,176.869
		c70.11,12.014,135.847-35.018,147.493-105.166C302.508,188.451,302.93,181.075,303.413,176.57z"/>
	<path fill-rule="evenodd" clip-rule="evenodd" d="M159.055,95.059c0-21.11-0.061-42.223,0.024-63.334
		c0.042-10.408,7.423-17.335,17.401-16.623c7.391,0.527,13.616,6.573,14.333,13.968c0.132,1.364,0.141,2.745,0.141,4.117
		c0.008,41.474,0.048,82.948-0.074,124.421c-0.01,3.271-0.553,6.82-1.905,9.752c-3.015,6.541-10.716,9.771-17.677,8.098
		c-7.142-1.715-12.153-7.85-12.192-15.564c-0.105-21.61-0.036-43.223-0.036-64.834C159.064,95.059,159.059,95.059,159.055,95.059z"
		/>
</g>
</svg>
