<?xml version="1.0" encoding="utf-8"?>
<!-- Generator: Adobe Illustrator 16.0.0, SVG Export Plug-In . SVG Version: 6.00 Build 0)  -->
<!DOCTYPE svg PUBLIC "-//W3C//DTD SVG 1.1//EN" "http://www.w3.org/Graphics/SVG/1.1/DTD/svg11.dtd">
<svg version="1.1" id="Layer_1" xmlns="http://www.w3.org/2000/svg" xmlns:xlink="http://www.w3.org/1999/xlink" x="0px" y="0px"
	 width="350px" height="350px" viewBox="0 0 350 350" enable-background="new 0 0 350 350" xml:space="preserve">
<g>
	<path fill-rule="evenodd" clip-rule="evenodd" fill="#010101" d="M61.709,8.574c60.071,0,120.143,0,180.213,0
		c2.039,1.094,3.987,2.25,5.681,3.918c21.853,21.525,43.741,43.014,65.659,64.473c2.626,2.569,3.897,5.479,3.895,9.194
		c-0.044,72.367-0.01,144.736-0.047,217.104c-0.01,21.407-15.823,37.194-37.239,37.204c-70.208,0.032-140.415,0.009-210.624,0.023
		c-3.145,0-6.25-0.255-9.302-1.006c-17.056-4.196-28.042-18.419-28.048-36.449c-0.02-75.716-0.009-151.433-0.006-227.149
		c0-10.692-0.135-21.389,0.062-32.079C32.246,27.82,43.439,13.89,58.937,9.798C59.893,9.544,61.131,9.749,61.709,8.574z
		 M51.338,174.522c0,42.989-0.014,85.979,0.011,128.97c0.007,10.316,7.21,17.525,17.519,17.528c70.426,0.02,140.852,0.02,211.277,0
		c10.313-0.003,17.517-7.206,17.52-17.524c0.021-68.698-0.001-137.395,0.066-206.093c0.003-2.317-0.645-2.8-2.858-2.782
		c-13.502,0.108-27.003,0.064-40.505,0.051c-15.04-0.015-24.488-9.415-24.519-24.42c-0.027-12.962-0.125-25.926,0.082-38.885
		c0.048-3.013-0.903-3.407-3.576-3.403c-52.063,0.079-104.126,0.058-156.19,0.059c-12.071,0.002-18.824,6.752-18.825,18.826
		C51.336,89.407,51.338,131.964,51.338,174.522z M281.373,75.226C271.27,64.54,260.615,53.272,249.313,41.32
		c0,10.906-0.06,20.775,0.041,30.644c0.025,2.611,1.945,3.283,4.279,3.274C263.328,75.207,273.023,75.226,281.373,75.226z"/>
	<path fill-rule="evenodd" clip-rule="evenodd" fill="#010101" d="M173.316,182.306c-22.563,0-45.124,0.017-67.686-0.012
		c-5.927-0.006-10.152-3.882-10.334-9.314c-0.182-5.407,3.783-9.762,9.209-10.106c0.537-0.032,1.079-0.015,1.619-0.015
		c44.908-0.001,89.815-0.007,134.722,0.005c8.041,0.001,13.107,6.796,10.054,13.563c-1.887,4.182-5.356,5.904-9.9,5.896
		C218.439,182.284,195.877,182.306,173.316,182.306z"/>
	<path fill-rule="evenodd" clip-rule="evenodd" fill="#010101" d="M167.35,260.097c-20.619,0-41.239,0.034-61.858-0.019
		c-7.655-0.02-12.491-7.251-9.3-13.836c1.812-3.739,4.949-5.574,9.104-5.588c6.477-0.022,12.954-0.006,19.431-0.006
		c34.87,0,69.74-0.013,104.609,0.01c7.64,0.005,12.504,6.575,9.898,13.242c-1.546,3.959-5.102,6.188-10.024,6.19
		C208.59,260.104,187.97,260.097,167.35,260.097z"/>
	<path fill-rule="evenodd" clip-rule="evenodd" fill="#010101" d="M160.92,201.752c18.15,0,36.3-0.005,54.451,0.004
		c6.628,0.002,10.984,3.835,11.021,9.646c0.034,5.836-4.328,9.793-10.879,9.794c-36.408,0.01-72.817,0.01-109.228,0.002
		c-6.638-0.002-10.959-3.819-10.994-9.653c-0.037-5.964,4.314-9.788,11.178-9.79C124.618,201.748,142.77,201.752,160.92,201.752z"/>
</g>
</svg>
