<?xml version="1.0" encoding="utf-8"?>
<!-- Generator: Adobe Illustrator 16.0.0, SVG Export Plug-In . SVG Version: 6.00 Build 0)  -->
<!DOCTYPE svg PUBLIC "-//W3C//DTD SVG 1.1//EN" "http://www.w3.org/Graphics/SVG/1.1/DTD/svg11.dtd">
<svg version="1.1" id="Layer_1" xmlns="http://www.w3.org/2000/svg" xmlns:xlink="http://www.w3.org/1999/xlink" x="0px" y="0px"
	 width="350px" height="350px" viewBox="0 0 350 350" enable-background="new 0 0 350 350" xml:space="preserve">
<g>
	<path fill-rule="evenodd" clip-rule="evenodd" d="M304.619,256.741c-0.152,9.696-3.198,16.861-8.994,22.81
		c-5.322,5.463-10.681,10.896-16.192,16.164c-12.599,12.044-30.921,12.095-43.628,0.112c-3.516-3.316-7.3-5.096-11.981-3.147
		c-4.771,1.984-6.342,5.91-6.435,10.922c-0.316,17.01-13.734,30.339-30.722,30.624c-7.404,0.125-14.812,0.059-22.217,0.021
		c-18.226-0.091-31.497-13.188-31.927-31.472c-0.191-8.11-7.263-13.195-14.159-10.086c-1.371,0.618-2.602,1.664-3.72,2.703
		c-13.658,12.688-31.861,12.446-45.114-0.661c-4.794-4.741-9.564-9.507-14.304-14.302c-13.106-13.26-13.37-31.531-0.601-45.058
		c3.263-3.457,4.668-7.259,2.665-11.763c-1.91-4.298-5.425-6.043-10.09-6.127c-18.184-0.328-31.356-13.755-31.366-31.999
		c-0.005-8.832-0.559-17.771,0.58-26.473c2.036-15.563,14.772-26.059,30.496-26.395c6.108-0.129,9.774-2.77,11.013-8.019
		c0.966-4.094-0.757-7.227-3.502-10.135c-9.433-9.991-11.69-23.319-6.098-35.235c3.313-7.062,23.845-27.546,30.907-30.838
		c11.871-5.533,25.454-3.327,34.97,5.883c3.489,3.377,7.296,5.107,11.967,3.175c4.771-1.973,6.549-5.905,6.426-10.923
		c-0.041-1.639,0.231-3.303,0.512-4.929c2.486-14.463,14.903-25.388,29.556-25.641c9.382-0.162,18.878-0.67,28.135,0.485
		c15.799,1.973,26.219,14.677,26.726,30.606c0.074,2.318,0.663,4.921,1.878,6.846c3.563,5.642,10.599,5.885,15.973,0.845
		c9.796-9.185,21.12-11.776,33.621-6.949c4.088,1.579,7.833,4.507,11.172,7.455c5.127,4.528,9.79,9.584,14.612,14.454
		c13.084,13.209,13.355,31.59,0.592,45.072c-3.283,3.468-4.659,7.256-2.662,11.753c1.91,4.3,5.435,6.039,10.095,6.124
		c18.071,0.328,31.297,13.656,31.356,31.664c0.029,8.941,0.553,17.989-0.587,26.804c-2.012,15.556-14.756,25.99-30.489,26.474
		c-2.322,0.071-4.937,0.612-6.857,1.821c-5.547,3.496-5.964,10.685-1.071,15.736C301.372,241.565,304.678,249.112,304.619,256.741z
		 M228.556,270.649c7.561,0.202,15.034,3.195,21.288,9.261c5.031,4.879,10.489,4.828,15.462-0.06
		c4.65-4.571,9.247-9.195,13.852-13.812c5.711-5.726,5.777-10.736,0.188-16.682c-5.62-5.979-8.586-13.084-8.734-21.25
		c-0.318-17.311,13.569-31.485,31.012-31.815c7.602-0.144,11.325-3.915,11.338-11.514c0.013-6.74,0.036-13.483-0.006-20.224
		c-0.042-6.515-4.037-10.551-10.463-10.718c-13.814-0.361-24.022-6.603-29.365-19.39c-5.294-12.67-2.571-24.226,6.764-34.228
		c4.756-5.096,4.771-10.536-0.117-15.5c-4.574-4.646-9.209-9.232-13.825-13.837c-5.718-5.704-10.696-5.765-16.662-0.16
		c-5.89,5.532-12.887,8.496-20.924,8.715c-17.463,0.476-31.8-13.434-32.134-31.015c-0.144-7.608-3.904-11.31-11.526-11.321
		c-6.743-0.01-13.483-0.033-20.225,0.007c-6.517,0.039-10.474,4.024-10.739,10.473c-0.112,2.742-0.316,5.545-0.994,8.189
		c-5.999,23.397-34.481,31.469-52.152,14.837c-5.774-5.436-10.842-5.393-16.419,0.163c-4.386,4.366-8.756,8.749-13.125,13.131
		c-5.947,5.964-6.062,10.84-0.36,16.909c5.621,5.983,8.561,13.104,8.693,21.265c0.285,17.47-13.591,31.43-31.402,31.763
		c-6.963,0.131-10.909,4.039-10.938,10.904c-0.028,7.074-0.057,14.147,0.011,21.22c0.058,6.066,4.144,10.065,10.182,10.358
		c2.854,0.138,5.772,0.293,8.52,0.998c23.405,6.015,31.429,34.427,14.798,52.159c-5.426,5.785-5.381,10.861,0.167,16.429
		c4.603,4.62,9.2,9.243,13.839,13.826c5.093,5.03,10.454,5.011,15.73,0.103c10.02-9.318,21.587-11.984,34.242-6.663
		c12.651,5.32,18.846,15.455,19.234,29.125c0.188,6.698,4.119,10.687,10.801,10.725c6.52,0.036,13.041,0.01,19.562,0.008
		c8.349-0.005,11.913-3.465,12.108-11.748C196.637,284.396,210.627,270.672,228.556,270.649z"/>
	<path fill-rule="evenodd" clip-rule="evenodd" d="M100.711,175.038c-0.021-40.766,33.234-74.191,73.883-74.261
		c41.334-0.071,74.668,33.168,74.692,74.479c0.023,40.506-33.411,74.095-73.735,74.074
		C133.955,249.308,100.732,216.328,100.711,175.038z M121.949,174.933c-0.112,29.268,23.691,53.121,53.079,53.191
		c28.92,0.069,52.903-23.724,53.028-52.606c0.126-29.312-23.438-53.362-52.429-53.513
		C145.977,121.852,122.063,145.432,121.949,174.933z"/>
</g>
</svg>
